<svg width="341" height="290" viewBox="0 0 341 290" fill="none" xmlns="http://www.w3.org/2000/svg">
<g clip-path="url(#clip0_221_152)">
<path d="M302.5 247H38.7C35.6 247 33 244.4 33 241.3C33 238.2 35.6 235.6 38.7 235.6H74.4C59.8 215.4 52.1 191.6 52.1 166.5C52.1 101.2 105.2 48 170.6 48C236 48 289.1 101.1 289.1 166.5C289.1 191.6 281.4 215.4 266.8 235.6H302.5C305.6 235.6 308.2 238.2 308.2 241.3C308.2 244.5 305.6 247 302.5 247ZM38.7 239.8C37.8 239.8 37.1 240.5 37.1 241.4C37.1 242.3 37.8 243 38.7 243H302.4C303.3 243 304 242.3 304 241.4C304 240.5 303.3 239.8 302.4 239.8H262.6C261.8 239.8 261.1 239.4 260.8 238.7C260.5 238 260.5 237.2 261 236.5C276.6 216.3 284.9 192.2 284.9 166.6C284.9 103.5 233.6 52.2 170.5 52.2C107.4 52.2 56.1 103.5 56.1 166.6C56.1 192.1 64.4 216.3 80 236.5C80.5 237.1 80.6 238 80.2 238.7C79.9 239.4 79.1 239.8 78.4 239.8H38.7ZM253.3 239.8H87.9C87.3 239.8 86.7 239.5 86.3 239.1C68.9 218.9 59.4 193.2 59.4 166.6C59.4 105.3 109.3 55.4 170.6 55.4C231.9 55.4 281.8 105.3 281.8 166.6C281.8 193.2 272.2 218.9 254.9 239.1C254.5 239.5 253.9 239.8 253.3 239.8ZM88.9 235.7H252.4C268.7 216.4 277.7 191.9 277.7 166.6C277.7 107.6 229.7 59.5 170.6 59.5C111.5 59.5 63.5 107.5 63.5 166.6C63.5 191.9 72.5 216.4 88.9 235.7Z" fill="#C5D8A4"/>
<path d="M199.5 206H159.3C152.2 206 146.3 200.2 146.3 193C146.3 185.8 152.1 180 159.3 180H199.5C206.6 180 212.5 185.8 212.5 193C212.5 200.2 206.6 206 199.5 206ZM159.3 184.2C154.4 184.2 150.4 188.2 150.4 193.1C150.4 198 154.4 202 159.3 202H199.5C204.4 202 208.4 198 208.4 193.1C208.4 188.2 204.4 184.2 199.5 184.2H159.3Z" fill="#C5D8A4"/>
<path d="M151.3 239.7C150.7 239.7 150.1 239.6 149.5 239.4C148.1 238.9 146.9 237.9 146.2 236.5C145.5 235.1 145.4 233.6 145.9 232.2L155.6 203.2C155.9 202.2 156.9 201.7 157.9 201.8C158.3 201.9 158.8 201.9 159.3 201.9H165.2C165.9 201.9 166.5 202.2 166.9 202.8C167.3 203.3 167.4 204 167.2 204.6L156.8 235.8C156 238.1 153.8 239.7 151.3 239.7ZM159 206L149.8 233.5C149.7 233.9 149.7 234.3 149.9 234.7C150.1 235.1 150.4 235.4 150.8 235.5C151.6 235.8 152.5 235.3 152.8 234.5L162.3 206H159.2C159.2 206 159.1 206 159 206Z" fill="#C5D8A4"/>
<path d="M207.4 239.7C205 239.7 202.8 238.1 202 235.8L191.6 204.6C191.4 204 191.5 203.3 191.9 202.8C192.3 202.3 192.9 201.9 193.6 201.9H199.5C200 201.9 200.4 201.9 200.9 201.8C201.9 201.6 202.9 202.2 203.2 203.2L212.9 232.2C213.4 233.6 213.3 235.2 212.6 236.5C211.9 237.9 210.8 238.9 209.3 239.4C208.6 239.6 208 239.7 207.4 239.7ZM196.4 206L205.9 234.5C206.2 235.3 207.1 235.8 207.9 235.5C208.3 235.4 208.6 235.1 208.8 234.7C209 234.3 209 233.9 208.9 233.5L199.7 206C199.6 206 199.5 206 199.4 206H196.4Z" fill="#C5D8A4"/>
<path d="M205.2 185.8C204.8 185.8 204.5 185.7 204.1 185.5C202.7 184.7 201.1 184.2 199.5 184.2H184.9C184 184.2 183.2 183.6 182.9 182.7L169.7 132.2C169.5 131.6 169.7 130.9 170.1 130.4C170.5 129.9 171.1 129.6 171.7 129.6H187.6C188.5 129.6 189.4 130.2 189.6 131.1C189.7 131.4 190.7 134.7 195.2 134.7C199.9 134.7 200.8 131.1 200.8 131.1C201 130.2 201.9 129.6 202.8 129.6H218.7C219.3 129.6 219.9 129.9 220.3 130.4C220.7 130.9 220.8 131.6 220.7 132.2L207.1 184.2C206.9 184.8 206.5 185.3 205.9 185.6C205.7 185.7 205.4 185.8 205.2 185.8ZM186.5 180.1H199.5C201 180.1 202.4 180.3 203.8 180.8L216.1 133.8H204.2C203 136.1 200.2 139 195.2 139C190.2 139 187.4 136.2 186.2 133.8H174.3L186.5 180.1Z" fill="#C5D8A4"/>
<path d="M127.9 218.4H73.5C72.7 218.4 72 218 71.7 217.3C63.6 201.5 59.5 184.5 59.5 166.6C59.5 165.5 60.4 164.5 61.6 164.5H133.5C134.6 164.5 135.6 165.4 135.6 166.6V210.8C135.5 215 132.1 218.4 127.9 218.4ZM74.7 214.2H127.9C129.8 214.2 131.4 212.7 131.4 210.7V168.5H63.6C63.8 184.7 67.6 200 74.7 214.2Z" fill="#C5D8A4"/>
<path d="M109.3 182.6H62.8C61.7 182.6 60.7 181.7 60.7 180.5V166.6C60.7 165.5 61.6 164.5 62.8 164.5H109.3C110.4 164.5 111.4 165.4 111.4 166.6V180.5C111.4 181.7 110.4 182.6 109.3 182.6ZM64.8999 178.5H107.3V168.7H64.8999V178.5Z" fill="#C5D8A4"/>
<path d="M86.0999 174.9C83.9999 174.9 82.3999 173.2 82.3999 171.2C82.3999 169.1 84.0999 167.5 86.0999 167.5C88.1999 167.5 89.7999 169.2 89.7999 171.2C89.7999 173.2 88.0999 174.9 86.0999 174.9ZM86.0999 170.7C85.8999 170.7 85.6999 170.9 85.6999 171.1C85.6999 171.3 85.8999 171.5 86.0999 171.5C86.2999 171.5 86.4999 171.3 86.4999 171.1C86.4999 170.9 86.2999 170.7 86.0999 170.7Z" fill="#C5D8A4"/>
<path d="M98.6999 168.6H73.4999C72.3999 168.6 71.3999 167.7 71.3999 166.5V166.2C71.3999 158.1 77.9999 151.6 85.9999 151.6C94.0999 151.6 100.6 158.2 100.6 166.2V166.6C100.7 167.7 99.7999 168.6 98.6999 168.6ZM75.6999 164.5H96.4999C95.6999 159.5 91.2999 155.7 86.0999 155.7C80.7999 155.7 76.4999 159.5 75.6999 164.5Z" fill="#C5D8A4"/>
<path d="M103.7 131.5C103.2 131.5 102.6 131.3 102.2 130.9L101.9 130.6C96.2 124.9 96.2 115.6 101.9 109.9C104.7 107.1 108.3 105.6 112.2 105.6C116.1 105.6 119.8 107.1 122.5 109.9L122.8 110.2C123.6 111 123.6 112.3 122.8 113.1L105 130.9C104.8 131.3 104.2 131.5 103.7 131.5ZM112.4 109.8C109.6 109.8 106.9 110.9 105 112.9C101.3 116.6 100.9 122.4 103.9 126.5L118.6 111.8C116.7 110.4 114.6 109.8 112.4 109.8Z" fill="#C5D8A4"/>
<path d="M119 129C118.5 129 117.9 128.8 117.5 128.4L113.8 124.7C113 123.9 113 122.6 113.8 121.8C114.6 121 115.9 121 116.7 121.8L120.4 125.5C121.2 126.3 121.2 127.6 120.4 128.4C120.1 128.8 119.6 129 119 129Z" fill="#C5D8A4"/>
<path d="M110.9 137.1C110.1 137.1 109.3 136.6 109 135.8L106.9 130.5C106.5 129.5 107 128.3 108 127.8C109 127.4 110.2 127.9 110.7 128.9L112.8 134.2C113.2 135.2 112.7 136.4 111.7 136.9C111.4 137.1 111.2 137.1 110.9 137.1Z" fill="#C5D8A4"/>
<path d="M127.1 120.9C126.8 120.9 126.6 120.9 126.3 120.7L121 118.6C119.9 118.2 119.4 117 119.9 115.9C120.3 114.8 121.5 114.3 122.6 114.8L127.9 116.9C129 117.3 129.5 118.5 129 119.6C128.7 120.4 127.9 120.9 127.1 120.9Z" fill="#C5D8A4"/>
<path d="M86.1001 139.5C82.9001 139.5 80.3 136.9 80.3 133.7C80.3 130.5 82.9001 127.9 86.1001 127.9C89.3001 127.9 91.9 130.5 91.9 133.7C91.9 136.9 89.3001 139.5 86.1001 139.5ZM86.1001 132.1C85.2001 132.1 84.4 132.9 84.4 133.8C84.4 134.7 85.2001 135.5 86.1001 135.5C87.0001 135.5 87.8 134.7 87.8 133.8C87.8 132.8 87.0001 132.1 86.1001 132.1Z" fill="#C5D8A4"/>
<path d="M86.0999 132.1C85.5999 132.1 85.0999 131.9 84.6999 131.5C83.8999 130.7 83.7999 129.4 84.5999 128.6L102 110C102.8 109.2 104.1 109.1 104.9 109.9C105.7 110.7 105.8 112 105 112.8L87.5999 131.4C87.1999 131.8 86.5999 132.1 86.0999 132.1Z" fill="#C5D8A4"/>
<path d="M86.1 155.7C85 155.7 84 154.8 84 153.6V137.4C84 136.3 84.9 135.3 86.1 135.3C87.2 135.3 88.2 136.2 88.2 137.4V153.6C88.1 154.8 87.2 155.7 86.1 155.7Z" fill="#C5D8A4"/>
<path d="M122.1 239.7C121.3 239.7 120.6 239.3 120.2 238.5L110 217.2C109.7 216.6 109.7 215.8 110.1 215.2C110.5 214.6 111.1 214.2 111.8 214.2H122C123.1 214.2 124.1 215.1 124.1 216.3V237.6C124.1 238.6 123.4 239.4 122.5 239.6C122.4 239.7 122.2 239.7 122.1 239.7ZM115.1 218.4L120 228.6V218.4H115.1Z" fill="#C5D8A4"/>
<path d="M277.6 147.1H230.3C227.2 147.1 224.6 144.5 224.6 141.4V73C224.6 72.3 225 71.6 225.6 71.2C226.2 70.8 227 70.8 227.7 71.2C230.2 72.7 232.7 74.3 235.1 76.1C235.6 76.5 236 77.1 236 77.8V135.8H275.9C276.8 135.8 277.6 136.4 277.9 137.3C278.6 139.7 279.2 142.2 279.7 144.7C279.8 145.3 279.7 145.9 279.3 146.4C278.8 146.8 278.2 147.1 277.6 147.1ZM228.7 76.7V141.4C228.7 142.3 229.4 143 230.3 143H275C274.8 141.9 274.5 140.9 274.2 139.8H234C232.9 139.8 231.9 138.9 231.9 137.7V78.8C230.9 78.1 229.8 77.4 228.7 76.7Z" fill="#C5D8A4"/>
</g>
<path d="M23.3416 212.545L42.5667 199.662L42.1641 200.83L42.0381 197.693L43.5657 197.422L45.7404 205.914L44.1674 206.196C43.6596 205.536 43.164 204.703 42.6808 203.697L43.3921 203.83L25.6757 215.141L24.4203 216.285C24.209 215.775 24.0085 215.181 23.8189 214.504C23.6293 213.827 23.4702 213.174 23.3416 212.545ZM23.8267 213.873L46.6195 215.487L45.979 215.821L45.9281 212.882L47.4557 212.612L49.2873 219.764L47.8051 220.022C47.5114 219.694 47.2364 219.313 46.98 218.879C46.7085 218.448 46.4633 217.995 46.2446 217.519L47.3463 218.325L24.4203 216.285L23.8267 213.873ZM41.5699 216.176L39.1984 215.985L36.7271 206.335L38.7091 205.005L41.5699 216.176Z" fill="#C5D8A4"/>
<path d="M39.9525 167.644L17.165 174.405L17.4437 170.384L38.1225 164.557L40.0696 164.598C40.1006 165.054 40.1056 165.548 40.0844 166.079C40.0644 166.595 40.0204 167.116 39.9525 167.644ZM39.9756 180.873L38.4873 180.652C38.1694 179.816 37.9307 178.852 37.7715 177.76L39.2991 178.429L18.1644 175.579L19.3344 175.307L18.4295 178.534L16.8944 178.31L17.2816 172.722L39.4565 175.48L38.0978 175.762L39.0108 172.419L40.5459 172.642L39.9756 180.873ZM40.0696 164.598L39.3916 166.924L18.3153 157.805L18.5227 154.812L40.0696 164.598ZM41.4386 159.759L39.9503 159.539C39.7946 159.074 39.6655 158.564 39.563 158.008C39.446 157.436 39.3529 156.858 39.2838 156.274L40.6358 156.767L18.4109 156.425L18.8613 149.925L20.3496 150.146C20.6487 151.028 20.8731 152.085 21.0226 153.317L19.9513 152.843L40.8329 152.904L39.6565 153.269L40.5387 150.37L42.0737 150.594L41.4386 159.759Z" fill="#C5D8A4"/>
<path d="M48.9744 126.752C47.9483 129.202 46.5324 130.904 44.7266 131.859C42.9207 132.814 41.009 132.868 38.9913 132.023L40.0945 128.115C41.5357 128.719 42.8277 128.768 43.9704 128.264C45.0988 127.754 45.9858 126.728 46.6317 125.186C47.2775 123.644 47.3863 122.292 46.9581 121.13C46.5155 119.963 45.5736 119.077 44.1324 118.473L45.7271 115.939C47.7449 116.784 49.047 118.185 49.6336 120.142C50.2202 122.098 50.0005 124.302 48.9744 126.752ZM38.9913 132.023L24.1395 125.804L25.6968 122.085L40.0945 128.115L38.9913 132.023ZM27.4687 127.198L24.4422 125.93L26.0264 126.213L24.304 128.566L22.9225 127.86L26.5349 119.235L27.8732 119.922C27.864 120.308 27.8199 120.798 27.7407 121.391C27.6615 121.985 27.5521 122.651 27.4125 123.388L25.9994 122.212L29.026 123.48L27.4687 127.198ZM45.7271 115.939L44.1324 118.473L29.7347 112.444L30.8754 109.72L45.7271 115.939ZM33.0639 113.838L30.0373 112.57L31.6578 112.766L29.6818 115.725L28.3003 115.019L31.4962 107.388L32.8345 108.075C32.8739 108.871 32.8049 109.825 32.6274 110.936L31.1781 109.846L34.2046 111.114L33.0639 113.838Z" fill="#C5D8A4"/>
<path d="M66.7647 93.6779C64.9987 95.8668 63.0555 97.2302 60.9352 97.7681C58.9658 96.6008 57.4149 95.45 56.2824 94.3155L57.3567 92.9839L63.5247 94.7077L61.0087 95.0268C62.8101 94.3119 64.27 93.2613 65.3885 91.8749C66.2617 90.7926 66.6856 89.7695 66.6603 88.8055C66.6448 87.8293 66.1932 86.9832 65.3054 86.2669C64.5636 85.6685 63.7802 85.4078 62.955 85.4849C62.1178 85.5522 61.14 85.9679 60.0216 86.732L58.0139 88.0634C54.5589 90.3552 51.5788 90.4906 49.0737 88.4695C47.432 87.145 46.5858 85.5188 46.5352 83.5908C46.4846 81.6628 47.2441 79.7259 48.8139 77.7802C50.2169 76.0412 51.8473 74.7668 53.7052 73.957C55.329 74.9056 56.6975 75.9093 57.8107 76.9681L56.6776 78.3726L51.6613 76.9757L54.5699 76.4313C52.6802 77.2556 51.2202 78.3062 50.1901 79.5831C48.5909 81.5653 48.6608 83.2579 50.3998 84.6609C51.1659 85.279 51.9835 85.5471 52.8525 85.4653C53.7314 85.3713 54.7728 84.9266 55.9767 84.1311L57.9844 82.7997C61.3562 80.5613 64.2765 80.4379 66.7451 82.4295C68.4355 83.7932 69.2838 85.4915 69.29 87.5242C69.2841 89.5472 68.4423 91.5984 66.7647 93.6779Z" fill="#C5D8A4"/>
<path d="M84.5308 72.5237L71.4262 54.205L74.6286 51.9141L87.7333 70.2328L84.5308 72.5237ZM86.3557 71.6505L84.992 69.7443L95.2855 62.3806L97.1067 63.9596L86.3557 71.6505ZM97.1067 63.9596L93.3531 65.1175L92.534 59.0178L94.0018 57.9678C94.5 58.6104 95.0428 59.4901 95.6303 60.6067C96.2087 61.7107 96.7008 62.8283 97.1067 63.9596ZM79.8597 63.2145L78.387 61.1558L86.7552 55.1694L88.0755 57.3372L79.8597 63.2145ZM73.1136 55.4762L71.75 53.57L83.3969 45.2381L84.3984 47.4034L73.1136 55.4762ZM85.875 51.1595L81.2958 48.3838L83.3969 45.2381C84.1839 45.9623 84.921 46.751 85.6082 47.6042C86.299 48.4356 86.8899 49.2616 87.3809 50.0822L85.875 51.1595ZM82.6004 74.3369L81.823 73.0488C82.2929 72.3092 82.9226 71.4841 83.7121 70.5735L84.3536 72.2759L82.4445 69.6072L85.6469 67.3163L87.556 69.985L86.3183 68.9396L89.249 67.6788L90.0537 69.0051L82.6004 74.3369ZM76.5727 50.12L77.3501 51.4081C76.8802 52.1477 76.2505 52.9728 75.461 53.8834L74.8195 52.181L76.7286 54.8497L73.5262 57.1406L71.6171 54.4719L72.8548 55.5173L69.9241 56.7781L69.1194 55.4518L76.5727 50.12Z" fill="#C5D8A4"/>
<path d="M141.126 44.8196C137.306 45.6368 134.165 45.2942 131.702 43.7917C129.239 42.2892 127.621 39.7274 126.846 36.1062C126.313 33.6157 126.326 31.36 126.885 29.3391C127.44 27.3029 128.482 25.6019 130.011 24.2362C131.553 22.8518 133.507 21.9063 135.876 21.3997C137.083 21.1415 138.295 21.018 139.511 21.0293C140.725 21.0254 141.752 21.1572 142.592 21.4249C143.259 23.1996 143.723 24.9938 143.983 26.8076L142.31 27.1656L139.012 22.5024L141.429 23.8308C139.614 23.3402 137.783 23.2926 135.934 23.6882C131.381 24.6622 129.759 28.2128 131.07 34.3397C132.479 40.9251 135.811 43.6556 141.067 42.5312C142.977 42.1226 144.628 41.3221 146.018 40.1298L146.165 41.4885L143.176 42.4157L144.857 36.4954L146.622 36.1179C147.032 37.8837 147.199 39.8612 147.124 42.0503C146.44 42.6601 145.558 43.2082 144.48 43.6946C143.42 44.1929 142.302 44.5679 141.126 44.8196Z" fill="#C5D8A4"/>
<path d="M181.862 41.0808L183.894 18.6492L187.815 19.0044L185.784 41.436L181.862 41.0808ZM168.23 39.8462L170.262 17.4146L174.184 17.7697L172.152 40.2014L168.23 39.8462ZM170.877 29.8489L171.085 27.5614L185.02 28.8235L184.813 31.111L170.877 29.8489ZM165.584 39.9596L165.836 38.4762C166.675 38.2227 167.691 38.0088 168.883 37.8344L168.258 39.5428L168.554 36.2749L172.475 36.6301L172.179 39.8979L171.924 38.2981L174.967 39.2562L174.711 40.7862L165.584 39.9596ZM179.216 41.1942L179.468 39.7109C180.307 39.4574 181.323 39.2434 182.515 39.069L181.89 40.7774L182.186 37.5095L186.107 37.8647L185.811 41.1325L185.556 39.5327L188.599 40.4908L188.343 42.0208L179.216 41.1942ZM190.459 18.9143L190.207 20.3977C189.368 20.6512 188.353 20.8651 187.16 21.0395L187.786 19.3311L187.49 22.599L183.568 22.2439L183.864 18.976L184.119 20.5758L181.076 19.6177L181.332 18.0877L190.459 18.9143ZM176.827 17.6797L176.575 19.163C175.737 19.4165 174.721 19.6305 173.529 19.8049L174.154 18.0965L173.858 21.3644L169.937 21.0092L170.232 17.7414L170.488 19.3412L167.444 18.3831L167.701 16.8531L176.827 17.6797Z" fill="#C5D8A4"/>
<path d="M227.074 28.2341L225.704 51.3362L225.018 50.3093L227.592 52.1066L226.883 53.4865L218.806 50.0817L219.533 48.6586C220.366 48.6536 221.329 48.7628 222.422 48.9861L221.886 49.4724L223.595 28.5226L223.444 26.8308C223.978 26.9713 224.572 27.1708 225.226 27.4295C225.88 27.6883 226.496 27.9564 227.074 28.2341ZM225.724 27.8174L210.651 44.9908L210.773 44.2792L213.144 46.0162L212.435 47.3961L205.632 44.5284L206.322 43.1917C206.761 43.1562 207.231 43.1678 207.732 43.2264C208.239 43.2705 208.748 43.3496 209.26 43.4634L207.951 43.8529L223.444 26.8308L225.724 27.8174ZM213.157 40.5535L214.744 38.7805L223.923 42.6497L223.783 45.0325L213.157 40.5535Z" fill="#C5D8A4"/>
<path d="M248.223 65.7014L262.668 48.42L265.689 50.9453L251.244 68.2266L248.223 65.7014ZM252.276 48.3174C253.675 46.3509 255.249 44.6628 256.998 43.253L258.928 46.6079L253.499 49.3395L252.276 48.3174ZM255.818 45.3219L256.998 43.253L271.78 55.6087L269.629 56.8659L255.818 45.3219ZM266.41 60.132L268.136 54.3039L271.78 55.6087C270.702 57.5797 269.32 59.4282 267.633 61.1541L266.41 60.132ZM245.695 64.0471L246.747 62.9714C247.217 63.1401 247.724 63.35 248.268 63.6008C248.812 63.8517 249.352 64.1306 249.89 64.4375L248.418 65.4676L250.523 62.95L253.544 65.4753L251.439 67.9929L252.105 66.5024L254.384 69.2936L253.302 70.4053L245.695 64.0471Z" fill="#C5D8A4"/>
<path d="M275.365 92.5665L294.193 80.2041L296.354 83.4955L277.527 95.8579L275.365 92.5665ZM284.275 77.099C286.184 75.6215 288.179 74.461 290.261 73.6175L291.138 77.3875L285.15 78.4312L284.275 77.099ZM288.533 75.2566L290.261 73.6175L300.835 89.7218L298.413 90.3029L288.533 75.2566ZM294.386 92.498L297.724 87.4184L300.835 89.7218C299.233 91.2967 297.376 92.6662 295.261 93.8302L294.386 92.498ZM273.425 90.2517L274.743 89.5264C275.144 89.8239 275.568 90.1714 276.016 90.5689C276.464 90.9664 276.901 91.3898 277.327 91.8391L275.62 92.3993L278.363 90.5983L280.524 93.8897L277.781 95.6907L278.849 94.4565L280.224 97.7879L278.866 98.539L273.425 90.2517Z" fill="#C5D8A4"/>
<path d="M292.205 121.506L313.804 115.121L314.92 118.896L293.321 125.282L292.205 121.506ZM292.432 123.516L294.68 122.852L298.268 134.989L296.18 136.193L292.432 123.516ZM296.18 136.193L296.315 132.267L302.346 133.49L302.858 135.22C302.088 135.481 301.079 135.706 299.831 135.895C298.599 136.08 297.382 136.18 296.18 136.193ZM302.53 120.14L304.957 119.422L307.874 129.289L305.394 129.827L302.53 120.14ZM312.05 116.299L314.298 115.634L318.358 129.367L315.984 129.604L312.05 116.299ZM311.952 129.77L316.073 126.352L318.358 129.367C317.416 129.874 316.43 130.312 315.398 130.682C314.387 131.063 313.413 131.35 312.477 131.546L311.952 129.77ZM291.123 119.089L292.595 118.776C293.14 119.462 293.713 120.327 294.315 121.371L292.497 121.42L295.643 120.49L296.76 124.266L293.613 125.196L295.006 124.369L295.238 127.551L293.721 127.877L291.123 119.089ZM315.979 121.321L314.507 121.634C313.962 120.947 313.389 120.082 312.787 119.038L314.605 118.989L311.459 119.92L310.343 116.144L313.489 115.214L312.096 116.041L311.864 112.859L313.381 112.533L315.979 121.321Z" fill="#C5D8A4"/>
<path d="M301.319 158.711L323.842 158.848L323.818 162.785L301.295 162.648L301.319 158.711ZM300.955 160.677L303.299 160.691L303.227 172.433L300.878 173.38L300.955 160.677ZM300.878 173.38L302.143 169.52L308.498 172.934L308.489 174.434C305.786 174.418 303.249 174.066 300.878 173.38ZM324.124 166.349L322.625 166.223C322.456 165.691 322.296 165.081 322.144 164.392C321.992 163.719 321.871 163.023 321.781 162.304L323.489 162.783L320.208 162.763L320.232 158.826L323.513 158.846L321.941 159.234L322.639 156.122L324.185 156.248L324.124 166.349ZM300.983 156.083L302.482 156.21C302.805 157.024 303.104 158.018 303.378 159.192L301.623 158.712L304.904 158.732L304.88 162.67L301.599 162.65L303.172 162.261L302.473 165.374L300.927 165.247L300.983 156.083Z" fill="#C5D8A4"/>
<path d="M297.018 201.297C297.787 198.592 299.043 196.577 300.784 195.253C303.053 195.557 304.93 196.009 306.416 196.611L305.948 198.256L299.597 199.082L301.788 197.804C300.41 199.167 299.477 200.705 298.99 202.418C298.609 203.755 298.619 204.863 299.02 205.74C299.416 206.633 300.162 207.235 301.259 207.547C302.176 207.807 302.999 207.741 303.728 207.347C304.473 206.958 305.21 206.193 305.941 205.052L307.268 203.042C309.551 199.581 312.241 198.291 315.337 199.172C317.366 199.749 318.781 200.914 319.581 202.669C320.382 204.424 320.44 206.503 319.757 208.908C319.145 211.057 318.143 212.868 316.75 214.34C314.885 214.102 313.233 213.713 311.794 213.174L312.288 211.438L317.451 210.762L314.987 212.401C316.403 210.903 317.336 209.365 317.785 207.787C318.482 205.337 317.755 203.807 315.606 203.196C314.659 202.926 313.802 202.999 313.034 203.414C312.262 203.845 311.477 204.661 310.681 205.864L309.353 207.875C307.126 211.254 304.486 212.509 301.435 211.642C299.346 211.048 297.901 209.816 297.101 207.948C296.315 206.084 296.287 203.867 297.018 201.297Z" fill="#C5D8A4"/>
<path d="M46.3125 279.922C46.3125 279.922 45.9479 279.941 45.2188 279.98C44.5026 280.007 43.4219 280.052 41.9766 280.117C41.9505 280.091 41.9375 279.987 41.9375 279.805C41.9375 279.31 42.0026 279.062 42.1328 279.062C42.3281 279.062 42.6211 279.017 43.0117 278.926C43.4023 278.822 43.7734 278.698 44.125 278.555C44.4766 278.398 44.6849 278.242 44.75 278.086C45.1146 277.344 45.4531 276.133 45.7656 274.453L48.5781 259.922C48.9167 258.021 49.0599 256.81 49.0078 256.289C48.9948 256.146 48.8451 256.003 48.5586 255.859C48.2721 255.716 47.9596 255.599 47.6211 255.508C47.2826 255.404 47.0156 255.352 46.8203 255.352C46.7682 255.352 46.7422 255.299 46.7422 255.195C46.7422 254.779 46.8333 254.479 47.0156 254.297C47.6146 254.323 48.2591 254.342 48.9492 254.355C49.6523 254.368 50.401 254.375 51.1953 254.375C51.7161 254.375 52.4258 254.362 53.3242 254.336C54.2357 254.31 55.3359 254.271 56.625 254.219C57.9141 254.167 59.0534 254.128 60.043 254.102C61.0326 254.076 61.8724 254.062 62.5625 254.062C62.5495 254.245 62.5365 254.466 62.5234 254.727C62.5234 254.974 62.5234 255.26 62.5234 255.586C62.5234 255.807 62.5234 256.081 62.5234 256.406C62.5365 256.719 62.5495 257.083 62.5625 257.5C62.5755 257.917 62.582 258.281 62.582 258.594C62.5951 258.906 62.6016 259.167 62.6016 259.375C62.4714 259.505 62.237 259.57 61.8984 259.57C61.5859 259.57 61.4297 259.479 61.4297 259.297C61.3516 257.839 61.013 256.914 60.4141 256.523C59.8151 256.133 58.8646 255.938 57.5625 255.938H55.4531C53.6172 255.938 52.6276 256.107 52.4844 256.445C52.1979 257.227 51.9635 258.099 51.7812 259.062L50.5312 265.898C50.5312 266.055 50.6875 266.146 51 266.172C51.3125 266.198 51.638 266.211 51.9766 266.211H53.7344C54.5938 266.211 55.2708 266.191 55.7656 266.152C56.2604 266.113 56.651 266.009 56.9375 265.84C57.224 265.671 57.4714 265.397 57.6797 265.02C57.901 264.642 58.1615 264.115 58.4609 263.438C58.5391 263.255 58.7214 263.164 59.0078 263.164C59.3203 263.164 59.5156 263.229 59.5938 263.359L58.1484 270.859C57.9792 270.964 57.7969 271.016 57.6016 271.016C57.25 271.016 57.0677 270.911 57.0547 270.703C57.0417 270.039 56.9896 269.512 56.8984 269.121C56.8464 268.874 56.8008 268.698 56.7617 268.594C56.7227 268.49 56.625 268.372 56.4688 268.242C56.2214 268.034 54.9583 267.93 52.6797 267.93C50.974 267.93 50.0885 268.047 50.0234 268.281L48.6953 275C48.487 276.003 48.3828 277.031 48.3828 278.086C48.3828 278.294 48.6042 278.483 49.0469 278.652C49.4896 278.822 49.9323 278.932 50.375 278.984L51.0391 279.062C51.0911 279.062 51.1172 279.167 51.1172 279.375C51.1172 279.714 51.0391 279.961 50.8828 280.117C49.6719 280.052 48.6823 280.007 47.9141 279.98C47.1589 279.941 46.625 279.922 46.3125 279.922ZM68.0703 263.008C68.487 263.008 68.8125 263.197 69.0469 263.574C69.2812 263.952 69.3984 264.44 69.3984 265.039C69.3984 265.729 69.3203 266.419 69.1641 267.109L67.7969 273.555C67.6146 274.349 67.5234 275.052 67.5234 275.664C67.5234 276.784 67.7708 277.344 68.2656 277.344C68.5521 277.344 68.9036 277.181 69.3203 276.855C69.75 276.53 70.1927 276.113 70.6484 275.605C71.1172 275.098 71.5534 274.577 71.957 274.043C72.6992 273.066 73.4023 271.875 74.0664 270.469C74.7305 269.062 75.1927 267.669 75.4531 266.289L76.1172 263.242C76.4688 263.138 76.8724 263.086 77.3281 263.086C77.7708 263.086 78.2135 263.138 78.6562 263.242L76.2344 275.859C76.1562 276.172 76.1172 276.497 76.1172 276.836C76.1172 277.487 76.2474 277.812 76.5078 277.812C76.8333 277.812 77.224 277.585 77.6797 277.129C78.1354 276.66 78.526 276.263 78.8516 275.938L79.0859 275.664C79.138 275.664 79.2357 275.788 79.3789 276.035C79.5221 276.283 79.5938 276.458 79.5938 276.562C79.3724 276.94 78.9688 277.422 78.3828 278.008C77.8099 278.594 77.1849 279.115 76.5078 279.57C75.8307 280.013 75.2188 280.234 74.6719 280.234C74.2552 280.234 73.9297 280.046 73.6953 279.668C73.4609 279.29 73.3438 278.802 73.3438 278.203C73.3438 277.812 73.4349 277.122 73.6172 276.133L74.3203 272.539C74.0729 273.008 73.5391 273.815 72.7188 274.961C72.1849 275.703 71.5404 276.484 70.7852 277.305C70.043 278.125 69.3008 278.822 68.5586 279.395C67.8164 279.954 67.1849 280.234 66.6641 280.234C65.362 280.234 64.7109 279.375 64.7109 277.656C64.7109 276.432 64.8932 275.013 65.2578 273.398L66.4297 267.969C66.5599 267.07 66.625 266.549 66.625 266.406C66.625 265.755 66.4948 265.43 66.2344 265.43C66.013 265.43 65.681 265.638 65.2383 266.055C65.0299 266.263 64.8021 266.491 64.5547 266.738C64.3203 266.986 64.1641 267.161 64.0859 267.266C64.0339 267.266 63.9362 267.142 63.793 266.895C63.6497 266.647 63.5781 266.471 63.5781 266.367C63.7865 266.016 64.1641 265.579 64.7109 265.059C65.2578 264.525 65.8438 264.049 66.4688 263.633C67.0938 263.216 67.6276 263.008 68.0703 263.008ZM87.1719 263.008C87.5885 263.008 87.9141 263.197 88.1484 263.574C88.3828 263.952 88.5 264.44 88.5 265.039C88.5 265.612 88.4219 266.302 88.2656 267.109L87.6406 270.391C87.9661 269.622 88.3828 268.815 88.8906 267.969C89.4115 267.109 89.9648 266.302 90.5508 265.547C91.1367 264.792 91.7161 264.18 92.2891 263.711C92.862 263.242 93.3698 263.008 93.8125 263.008C94.6979 263.008 95.4141 263.424 95.9609 264.258C95.9609 266.003 95.4792 266.875 94.5156 266.875C94.3073 266.875 94.0599 266.712 93.7734 266.387C93.487 266.061 93.1875 265.898 92.875 265.898C92.4974 265.898 92.0026 266.211 91.3906 266.836C90.7786 267.461 90.1471 268.281 89.4961 269.297C88.8451 270.299 88.2591 271.387 87.7383 272.559C87.2174 273.717 86.8594 274.831 86.6641 275.898L85.9219 280C85.4792 280.078 85.0495 280.117 84.6328 280.117C84.138 280.117 83.6562 280.078 83.1875 280L85.5312 267.969C85.6615 267.07 85.7266 266.549 85.7266 266.406C85.7266 265.755 85.5964 265.43 85.3359 265.43C85.1146 265.43 84.7826 265.638 84.3398 266.055C84.1315 266.263 83.9036 266.491 83.6562 266.738C83.4219 266.986 83.2656 267.161 83.1875 267.266C83.1354 267.266 83.0378 267.142 82.8945 266.895C82.7513 266.647 82.6797 266.471 82.6797 266.367C82.888 266.016 83.2656 265.579 83.8125 265.059C84.3594 264.525 84.9453 264.049 85.5703 263.633C86.1953 263.216 86.7292 263.008 87.1719 263.008ZM101.43 263.008C101.846 263.008 102.172 263.197 102.406 263.574C102.641 263.952 102.758 264.44 102.758 265.039C102.758 265.612 102.68 266.302 102.523 267.109L101.82 270.703C102.068 270.26 102.634 269.453 103.52 268.281C104.105 267.513 104.783 266.725 105.551 265.918C106.332 265.098 107.1 264.408 107.855 263.848C108.624 263.288 109.268 263.008 109.789 263.008C111.091 263.008 111.742 263.867 111.742 265.586C111.742 266.797 111.56 268.216 111.195 269.844L109.906 275.859C109.828 276.172 109.789 276.497 109.789 276.836C109.789 277.487 109.919 277.812 110.18 277.812C110.505 277.812 110.896 277.585 111.352 277.129C111.807 276.66 112.198 276.263 112.523 275.938L112.758 275.664C112.81 275.664 112.908 275.788 113.051 276.035C113.194 276.283 113.266 276.458 113.266 276.562C113.044 276.94 112.641 277.422 112.055 278.008C111.482 278.594 110.857 279.115 110.18 279.57C109.503 280.013 108.891 280.234 108.344 280.234C107.927 280.234 107.602 280.046 107.367 279.668C107.133 279.29 107.016 278.802 107.016 278.203C107.016 277.812 107.107 277.122 107.289 276.133L108.656 269.688C108.839 268.802 108.93 268.099 108.93 267.578C108.93 266.458 108.682 265.898 108.188 265.898C107.758 265.898 107.178 266.224 106.449 266.875C105.72 267.513 104.958 268.366 104.164 269.434C103.383 270.501 102.673 271.693 102.035 273.008C101.397 274.31 100.948 275.625 100.688 276.953L100.023 280C99.6719 280.104 99.2682 280.156 98.8125 280.156C98.3698 280.156 97.9271 280.104 97.4844 280L99.7891 267.969C99.9193 267.07 99.9844 266.549 99.9844 266.406C99.9844 265.755 99.8542 265.43 99.5938 265.43C99.3724 265.43 99.0404 265.638 98.5977 266.055C98.3893 266.263 98.1615 266.491 97.9141 266.738C97.6797 266.986 97.5234 267.161 97.4453 267.266C97.3932 267.266 97.2956 267.142 97.1523 266.895C97.0091 266.647 96.9375 266.471 96.9375 266.367C97.1458 266.016 97.5234 265.579 98.0703 265.059C98.6172 264.525 99.2031 264.049 99.8281 263.633C100.453 263.216 100.987 263.008 101.43 263.008ZM122.094 254.766C122.484 254.766 122.816 254.922 123.09 255.234C123.363 255.547 123.5 255.911 123.5 256.328C123.5 256.953 123.298 257.5 122.895 257.969C122.491 258.438 121.99 258.672 121.391 258.672C120.974 258.672 120.648 258.509 120.414 258.184C120.18 257.858 120.062 257.461 120.062 256.992C120.062 256.393 120.258 255.872 120.648 255.43C121.039 254.987 121.521 254.766 122.094 254.766ZM120.961 263.008C121.378 263.008 121.703 263.197 121.938 263.574C122.172 263.952 122.289 264.44 122.289 265.039C122.289 265.573 122.211 266.263 122.055 267.109L120.336 275.859C120.258 276.172 120.219 276.497 120.219 276.836C120.219 277.487 120.349 277.812 120.609 277.812C120.935 277.812 121.326 277.585 121.781 277.129C122.237 276.66 122.628 276.263 122.953 275.938L123.188 275.664C123.24 275.664 123.337 275.788 123.48 276.035C123.624 276.283 123.695 276.458 123.695 276.562C123.474 276.94 123.07 277.422 122.484 278.008C121.911 278.594 121.286 279.115 120.609 279.57C119.932 280.013 119.32 280.234 118.773 280.234C118.357 280.234 118.031 280.046 117.797 279.668C117.562 279.29 117.445 278.802 117.445 278.203C117.445 277.812 117.536 277.122 117.719 276.133L119.32 267.969C119.451 267.201 119.516 266.68 119.516 266.406C119.516 265.755 119.385 265.43 119.125 265.43C118.969 265.43 118.754 265.534 118.48 265.742C118.22 265.951 117.966 266.185 117.719 266.445C117.471 266.693 117.289 266.888 117.172 267.031L116.977 267.266C116.924 267.266 116.827 267.142 116.684 266.895C116.54 266.647 116.469 266.471 116.469 266.367C116.677 266.016 117.055 265.579 117.602 265.059C118.148 264.525 118.734 264.049 119.359 263.633C119.984 263.216 120.518 263.008 120.961 263.008ZM127.523 263.594H130.258L131.195 258.828C131.273 258.568 131.911 258.438 133.109 258.438C133.37 258.438 133.604 258.451 133.812 258.477L132.836 263.594H136.391C136.521 263.594 136.586 263.763 136.586 264.102C136.586 264.401 136.469 264.779 136.234 265.234H132.523L130.453 275.859C130.375 276.172 130.336 276.497 130.336 276.836C130.336 277.487 130.466 277.812 130.727 277.812C131.052 277.812 131.443 277.585 131.898 277.129C132.354 276.66 132.745 276.263 133.07 275.938L133.305 275.664C133.357 275.664 133.454 275.788 133.598 276.035C133.741 276.283 133.812 276.458 133.812 276.562C133.591 276.94 133.188 277.422 132.602 278.008C132.029 278.594 131.404 279.115 130.727 279.57C130.049 280.013 129.438 280.234 128.891 280.234C128.474 280.234 128.148 280.046 127.914 279.668C127.68 279.29 127.562 278.802 127.562 278.203C127.562 277.812 127.654 277.122 127.836 276.133L129.945 265.234H127.172C127.094 265.234 127.055 265.091 127.055 264.805C127.055 264.466 127.211 264.062 127.523 263.594ZM141.195 263.008C141.612 263.008 141.938 263.197 142.172 263.574C142.406 263.952 142.523 264.44 142.523 265.039C142.523 265.729 142.445 266.419 142.289 267.109L140.922 273.555C140.74 274.349 140.648 275.052 140.648 275.664C140.648 276.784 140.896 277.344 141.391 277.344C141.677 277.344 142.029 277.181 142.445 276.855C142.875 276.53 143.318 276.113 143.773 275.605C144.242 275.098 144.678 274.577 145.082 274.043C145.824 273.066 146.527 271.875 147.191 270.469C147.855 269.062 148.318 267.669 148.578 266.289L149.242 263.242C149.594 263.138 149.997 263.086 150.453 263.086C150.896 263.086 151.339 263.138 151.781 263.242L149.359 275.859C149.281 276.172 149.242 276.497 149.242 276.836C149.242 277.487 149.372 277.812 149.633 277.812C149.958 277.812 150.349 277.585 150.805 277.129C151.26 276.66 151.651 276.263 151.977 275.938L152.211 275.664C152.263 275.664 152.361 275.788 152.504 276.035C152.647 276.283 152.719 276.458 152.719 276.562C152.497 276.94 152.094 277.422 151.508 278.008C150.935 278.594 150.31 279.115 149.633 279.57C148.956 280.013 148.344 280.234 147.797 280.234C147.38 280.234 147.055 280.046 146.82 279.668C146.586 279.29 146.469 278.802 146.469 278.203C146.469 277.812 146.56 277.122 146.742 276.133L147.445 272.539C147.198 273.008 146.664 273.815 145.844 274.961C145.31 275.703 144.665 276.484 143.91 277.305C143.168 278.125 142.426 278.822 141.684 279.395C140.941 279.954 140.31 280.234 139.789 280.234C138.487 280.234 137.836 279.375 137.836 277.656C137.836 276.432 138.018 275.013 138.383 273.398L139.555 267.969C139.685 267.07 139.75 266.549 139.75 266.406C139.75 265.755 139.62 265.43 139.359 265.43C139.138 265.43 138.806 265.638 138.363 266.055C138.155 266.263 137.927 266.491 137.68 266.738C137.445 266.986 137.289 267.161 137.211 267.266C137.159 267.266 137.061 267.142 136.918 266.895C136.775 266.647 136.703 266.471 136.703 266.367C136.911 266.016 137.289 265.579 137.836 265.059C138.383 264.525 138.969 264.049 139.594 263.633C140.219 263.216 140.753 263.008 141.195 263.008ZM160.297 263.008C160.714 263.008 161.039 263.197 161.273 263.574C161.508 263.952 161.625 264.44 161.625 265.039C161.625 265.612 161.547 266.302 161.391 267.109L160.766 270.391C161.091 269.622 161.508 268.815 162.016 267.969C162.536 267.109 163.09 266.302 163.676 265.547C164.262 264.792 164.841 264.18 165.414 263.711C165.987 263.242 166.495 263.008 166.938 263.008C167.823 263.008 168.539 263.424 169.086 264.258C169.086 266.003 168.604 266.875 167.641 266.875C167.432 266.875 167.185 266.712 166.898 266.387C166.612 266.061 166.312 265.898 166 265.898C165.622 265.898 165.128 266.211 164.516 266.836C163.904 267.461 163.272 268.281 162.621 269.297C161.97 270.299 161.384 271.387 160.863 272.559C160.342 273.717 159.984 274.831 159.789 275.898L159.047 280C158.604 280.078 158.174 280.117 157.758 280.117C157.263 280.117 156.781 280.078 156.312 280L158.656 267.969C158.786 267.07 158.852 266.549 158.852 266.406C158.852 265.755 158.721 265.43 158.461 265.43C158.24 265.43 157.908 265.638 157.465 266.055C157.257 266.263 157.029 266.491 156.781 266.738C156.547 266.986 156.391 267.161 156.312 267.266C156.26 267.266 156.163 267.142 156.02 266.895C155.876 266.647 155.805 266.471 155.805 266.367C156.013 266.016 156.391 265.579 156.938 265.059C157.484 264.525 158.07 264.049 158.695 263.633C159.32 263.216 159.854 263.008 160.297 263.008ZM178.148 263.008C179.346 263.008 180.212 263.314 180.746 263.926C181.28 264.538 181.547 265.208 181.547 265.938C181.547 267.083 180.961 268.216 179.789 269.336C179.008 270.078 178.168 270.716 177.27 271.25C176.371 271.771 175.505 272.168 174.672 272.441C173.839 272.715 173.135 272.852 172.562 272.852C172.458 272.852 172.406 273.307 172.406 274.219C172.406 275.391 172.634 276.283 173.09 276.895C173.546 277.507 174.164 277.812 174.945 277.812C175.271 277.812 175.661 277.721 176.117 277.539C176.573 277.357 176.924 277.161 177.172 276.953C177.432 276.732 177.576 276.615 177.602 276.602C177.628 276.589 177.68 276.549 177.758 276.484C177.836 276.406 178.07 276.172 178.461 275.781L178.578 275.664C178.63 275.664 178.728 275.788 178.871 276.035C179.014 276.283 179.086 276.458 179.086 276.562C178.852 276.979 178.435 277.48 177.836 278.066C177.25 278.639 176.586 279.147 175.844 279.59C175.102 280.02 174.372 280.234 173.656 280.234C172.302 280.234 171.267 279.707 170.551 278.652C169.835 277.598 169.477 276.146 169.477 274.297C169.477 273.047 169.737 271.764 170.258 270.449C170.779 269.121 171.469 267.897 172.328 266.777C173.188 265.658 174.125 264.753 175.141 264.062C176.156 263.359 177.159 263.008 178.148 263.008ZM177.758 264.609C177.146 264.609 176.54 264.863 175.941 265.371C175.342 265.879 174.796 266.504 174.301 267.246C173.806 267.988 173.409 268.737 173.109 269.492C172.823 270.234 172.68 270.846 172.68 271.328C172.68 271.432 172.732 271.484 172.836 271.484C173.305 271.484 173.871 271.315 174.535 270.977C175.199 270.625 175.85 270.169 176.488 269.609C177.126 269.049 177.66 268.438 178.09 267.773C178.52 267.096 178.734 266.432 178.734 265.781C178.734 265 178.409 264.609 177.758 264.609ZM207.719 254.297C209.984 254.297 211.879 254.727 213.402 255.586C214.939 256.445 216.091 257.617 216.859 259.102C217.641 260.586 218.031 262.279 218.031 264.18C218.031 265.508 217.836 266.888 217.445 268.32C217.055 269.753 216.436 271.172 215.59 272.578C214.743 273.984 213.734 275.247 212.562 276.367C211.391 277.487 209.945 278.392 208.227 279.082C206.508 279.772 204.646 280.117 202.641 280.117C202.406 280.117 202.055 280.104 201.586 280.078C201.13 280.065 200.557 280.046 199.867 280.02C199.177 279.993 198.546 279.974 197.973 279.961C197.413 279.935 196.911 279.922 196.469 279.922L192.133 280.117C192.107 280.091 192.094 279.987 192.094 279.805C192.094 279.31 192.159 279.062 192.289 279.062C192.484 279.062 192.777 279.017 193.168 278.926C193.559 278.822 193.93 278.698 194.281 278.555C194.633 278.398 194.841 278.242 194.906 278.086C195.271 277.344 195.609 276.133 195.922 274.453L198.734 259.922C199.073 258.021 199.216 256.81 199.164 256.289C199.151 256.146 199.001 256.003 198.715 255.859C198.428 255.716 198.116 255.599 197.777 255.508C197.439 255.404 197.172 255.352 196.977 255.352C196.924 255.352 196.898 255.299 196.898 255.195C196.898 254.779 196.99 254.479 197.172 254.297C197.771 254.323 198.415 254.342 199.105 254.355C199.809 254.368 200.557 254.375 201.352 254.375C201.807 254.375 202.328 254.375 202.914 254.375C203.5 254.362 204.151 254.349 204.867 254.336C205.583 254.323 206.176 254.316 206.645 254.316C207.126 254.303 207.484 254.297 207.719 254.297ZM207.641 256.016C204.854 256.016 203.292 256.224 202.953 256.641C202.536 257.174 202.185 258.203 201.898 259.727L199.047 274.57C198.969 274.935 198.93 275.488 198.93 276.23C198.93 276.986 198.956 277.422 199.008 277.539C199.242 278.06 200.753 278.32 203.539 278.32C205.74 278.32 207.693 277.611 209.398 276.191C211.117 274.772 212.413 272.969 213.285 270.781C214.158 268.594 214.594 266.276 214.594 263.828C214.594 261.536 214.021 259.661 212.875 258.203C211.729 256.745 209.984 256.016 207.641 256.016ZM228.656 263.008C229.854 263.008 230.72 263.314 231.254 263.926C231.788 264.538 232.055 265.208 232.055 265.938C232.055 267.083 231.469 268.216 230.297 269.336C229.516 270.078 228.676 270.716 227.777 271.25C226.879 271.771 226.013 272.168 225.18 272.441C224.346 272.715 223.643 272.852 223.07 272.852C222.966 272.852 222.914 273.307 222.914 274.219C222.914 275.391 223.142 276.283 223.598 276.895C224.053 277.507 224.672 277.812 225.453 277.812C225.779 277.812 226.169 277.721 226.625 277.539C227.081 277.357 227.432 277.161 227.68 276.953C227.94 276.732 228.083 276.615 228.109 276.602C228.135 276.589 228.188 276.549 228.266 276.484C228.344 276.406 228.578 276.172 228.969 275.781L229.086 275.664C229.138 275.664 229.236 275.788 229.379 276.035C229.522 276.283 229.594 276.458 229.594 276.562C229.359 276.979 228.943 277.48 228.344 278.066C227.758 278.639 227.094 279.147 226.352 279.59C225.609 280.02 224.88 280.234 224.164 280.234C222.81 280.234 221.775 279.707 221.059 278.652C220.342 277.598 219.984 276.146 219.984 274.297C219.984 273.047 220.245 271.764 220.766 270.449C221.286 269.121 221.977 267.897 222.836 266.777C223.695 265.658 224.633 264.753 225.648 264.062C226.664 263.359 227.667 263.008 228.656 263.008ZM228.266 264.609C227.654 264.609 227.048 264.863 226.449 265.371C225.85 265.879 225.303 266.504 224.809 267.246C224.314 267.988 223.917 268.737 223.617 269.492C223.331 270.234 223.188 270.846 223.188 271.328C223.188 271.432 223.24 271.484 223.344 271.484C223.812 271.484 224.379 271.315 225.043 270.977C225.707 270.625 226.358 270.169 226.996 269.609C227.634 269.049 228.168 268.438 228.598 267.773C229.027 267.096 229.242 266.432 229.242 265.781C229.242 265 228.917 264.609 228.266 264.609ZM241.469 262.891C242.953 262.891 244.125 263.385 244.984 264.375C245.115 264.674 245.18 264.948 245.18 265.195C245.18 265.664 245.056 266.068 244.809 266.406C244.561 266.745 244.242 266.914 243.852 266.914C243.5 266.914 243.174 266.725 242.875 266.348C242.589 265.97 242.23 265.586 241.801 265.195C241.371 264.805 240.805 264.609 240.102 264.609C239.555 264.609 239.125 264.792 238.812 265.156C238.5 265.521 238.344 265.938 238.344 266.406C238.344 267.083 238.598 267.806 239.105 268.574C239.613 269.342 240.167 270.026 240.766 270.625C241.365 271.224 241.918 271.953 242.426 272.812C242.934 273.672 243.188 274.544 243.188 275.43C243.188 276.862 242.667 278.021 241.625 278.906C240.583 279.792 239.242 280.234 237.602 280.234C236.117 280.234 234.945 279.74 234.086 278.75C233.956 278.542 233.891 278.294 233.891 278.008C233.891 277.539 234.014 277.122 234.262 276.758C234.509 276.393 234.828 276.211 235.219 276.211C235.57 276.211 235.896 276.4 236.195 276.777C236.482 277.155 236.84 277.539 237.27 277.93C237.699 278.32 238.266 278.516 238.969 278.516C239.542 278.516 240.004 278.327 240.355 277.949C240.707 277.572 240.883 277.161 240.883 276.719C240.883 276.042 240.629 275.319 240.121 274.551C239.613 273.783 239.06 273.099 238.461 272.5C237.862 271.901 237.309 271.172 236.801 270.312C236.293 269.453 236.039 268.581 236.039 267.695C236.039 266.966 236.28 266.23 236.762 265.488C237.243 264.746 237.895 264.128 238.715 263.633C239.535 263.138 240.453 262.891 241.469 262.891ZM253.031 254.766C253.422 254.766 253.754 254.922 254.027 255.234C254.301 255.547 254.438 255.911 254.438 256.328C254.438 256.953 254.236 257.5 253.832 257.969C253.428 258.438 252.927 258.672 252.328 258.672C251.911 258.672 251.586 258.509 251.352 258.184C251.117 257.858 251 257.461 251 256.992C251 256.393 251.195 255.872 251.586 255.43C251.977 254.987 252.458 254.766 253.031 254.766ZM251.898 263.008C252.315 263.008 252.641 263.197 252.875 263.574C253.109 263.952 253.227 264.44 253.227 265.039C253.227 265.573 253.148 266.263 252.992 267.109L251.273 275.859C251.195 276.172 251.156 276.497 251.156 276.836C251.156 277.487 251.286 277.812 251.547 277.812C251.872 277.812 252.263 277.585 252.719 277.129C253.174 276.66 253.565 276.263 253.891 275.938L254.125 275.664C254.177 275.664 254.275 275.788 254.418 276.035C254.561 276.283 254.633 276.458 254.633 276.562C254.411 276.94 254.008 277.422 253.422 278.008C252.849 278.594 252.224 279.115 251.547 279.57C250.87 280.013 250.258 280.234 249.711 280.234C249.294 280.234 248.969 280.046 248.734 279.668C248.5 279.29 248.383 278.802 248.383 278.203C248.383 277.812 248.474 277.122 248.656 276.133L250.258 267.969C250.388 267.201 250.453 266.68 250.453 266.406C250.453 265.755 250.323 265.43 250.062 265.43C249.906 265.43 249.691 265.534 249.418 265.742C249.158 265.951 248.904 266.185 248.656 266.445C248.409 266.693 248.227 266.888 248.109 267.031L247.914 267.266C247.862 267.266 247.764 267.142 247.621 266.895C247.478 266.647 247.406 266.471 247.406 266.367C247.615 266.016 247.992 265.579 248.539 265.059C249.086 264.525 249.672 264.049 250.297 263.633C250.922 263.216 251.456 263.008 251.898 263.008ZM265.883 262.969C266.664 262.969 267.523 263.145 268.461 263.496C269.398 263.848 270.31 264.023 271.195 264.023H272.875C273.031 264.023 273.109 264.128 273.109 264.336C273.109 264.518 273.064 264.74 272.973 265C272.882 265.26 272.784 265.443 272.68 265.547H270.492C270.336 265.547 270.258 265.625 270.258 265.781C270.414 266.719 270.492 267.396 270.492 267.812C270.492 268.776 270.355 269.668 270.082 270.488C269.809 271.309 269.444 271.979 268.988 272.5C268.533 273.021 268.155 273.411 267.855 273.672C267.556 273.932 267.25 274.154 266.938 274.336C266.638 274.518 266.111 274.785 265.355 275.137C264.717 275.436 264.138 275.749 263.617 276.074C263.096 276.4 262.836 276.706 262.836 276.992C262.836 277.227 263.09 277.454 263.598 277.676C264.105 277.884 264.73 278.118 265.473 278.379C265.85 278.509 266.221 278.652 266.586 278.809C266.951 278.952 267.315 279.115 267.68 279.297C268.409 279.661 269.027 280.169 269.535 280.82C270.043 281.471 270.297 282.214 270.297 283.047C270.297 284.896 269.47 286.367 267.816 287.461C266.163 288.555 263.943 289.102 261.156 289.102C259.359 289.102 257.895 288.763 256.762 288.086C255.629 287.409 255.062 286.471 255.062 285.273C255.062 284.388 255.362 283.594 255.961 282.891C256.56 282.201 257.289 281.595 258.148 281.074C259.021 280.553 259.867 280.117 260.688 279.766L259.984 279.297C259.333 278.841 259.008 278.372 259.008 277.891C259.008 277.591 259.229 277.259 259.672 276.895C260.115 276.53 260.642 276.191 261.254 275.879C261.866 275.566 262.419 275.352 262.914 275.234C262.445 275.234 261.879 275.104 261.215 274.844C260.577 274.583 259.965 274.108 259.379 273.418C258.793 272.728 258.5 271.914 258.5 270.977C258.5 269.518 258.852 268.184 259.555 266.973C260.271 265.762 261.189 264.792 262.309 264.062C263.441 263.333 264.633 262.969 265.883 262.969ZM265.258 264.453C264.503 264.453 263.839 264.746 263.266 265.332C262.693 265.905 262.243 266.641 261.918 267.539C261.592 268.438 261.43 269.375 261.43 270.352C261.43 271.367 261.638 272.214 262.055 272.891C262.471 273.568 263.057 273.906 263.812 273.906C264.542 273.906 265.193 273.639 265.766 273.105C266.339 272.559 266.788 271.875 267.113 271.055C267.439 270.221 267.602 269.375 267.602 268.516C267.602 267.474 267.393 266.536 266.977 265.703C266.56 264.87 265.987 264.453 265.258 264.453ZM267.797 284.609C267.797 283.776 267.51 283.092 266.938 282.559C266.365 282.025 265.655 281.582 264.809 281.23C263.962 280.879 263.135 280.573 262.328 280.312C261.833 280.521 261.475 280.677 261.254 280.781C261.033 280.885 260.661 281.081 260.141 281.367C259.568 281.693 259.06 282.096 258.617 282.578C258.174 283.06 257.953 283.633 257.953 284.297C257.953 286.38 259.659 287.422 263.07 287.422C264.346 287.422 265.453 287.155 266.391 286.621C267.328 286.087 267.797 285.417 267.797 284.609ZM279.398 263.008C279.815 263.008 280.141 263.197 280.375 263.574C280.609 263.952 280.727 264.44 280.727 265.039C280.727 265.612 280.648 266.302 280.492 267.109L279.789 270.703C280.036 270.26 280.603 269.453 281.488 268.281C282.074 267.513 282.751 266.725 283.52 265.918C284.301 265.098 285.069 264.408 285.824 263.848C286.592 263.288 287.237 263.008 287.758 263.008C289.06 263.008 289.711 263.867 289.711 265.586C289.711 266.797 289.529 268.216 289.164 269.844L287.875 275.859C287.797 276.172 287.758 276.497 287.758 276.836C287.758 277.487 287.888 277.812 288.148 277.812C288.474 277.812 288.865 277.585 289.32 277.129C289.776 276.66 290.167 276.263 290.492 275.938L290.727 275.664C290.779 275.664 290.876 275.788 291.02 276.035C291.163 276.283 291.234 276.458 291.234 276.562C291.013 276.94 290.609 277.422 290.023 278.008C289.451 278.594 288.826 279.115 288.148 279.57C287.471 280.013 286.859 280.234 286.312 280.234C285.896 280.234 285.57 280.046 285.336 279.668C285.102 279.29 284.984 278.802 284.984 278.203C284.984 277.812 285.076 277.122 285.258 276.133L286.625 269.688C286.807 268.802 286.898 268.099 286.898 267.578C286.898 266.458 286.651 265.898 286.156 265.898C285.727 265.898 285.147 266.224 284.418 266.875C283.689 267.513 282.927 268.366 282.133 269.434C281.352 270.501 280.642 271.693 280.004 273.008C279.366 274.31 278.917 275.625 278.656 276.953L277.992 280C277.641 280.104 277.237 280.156 276.781 280.156C276.339 280.156 275.896 280.104 275.453 280L277.758 267.969C277.888 267.07 277.953 266.549 277.953 266.406C277.953 265.755 277.823 265.43 277.562 265.43C277.341 265.43 277.009 265.638 276.566 266.055C276.358 266.263 276.13 266.491 275.883 266.738C275.648 266.986 275.492 267.161 275.414 267.266C275.362 267.266 275.264 267.142 275.121 266.895C274.978 266.647 274.906 266.471 274.906 266.367C275.115 266.016 275.492 265.579 276.039 265.059C276.586 264.525 277.172 264.049 277.797 263.633C278.422 263.216 278.956 263.008 279.398 263.008Z" fill="#C5D8A4"/>
<defs>
<clipPath id="clip0_221_152">
<rect width="275.2" height="199" fill="white" transform="translate(33 48)"/>
</clipPath>
</defs>
</svg>
